<svg xmlns:dc="http://purl.org/dc/elements/1.1/" xmlns:cc="http://creativecommons.org/ns#" xmlns:rdf="http://www.w3.org/1999/02/22-rdf-syntax-ns#" xmlns:svg="http://www.w3.org/2000/svg" xmlns="http://www.w3.org/2000/svg" viewBox="0 0 800 213.33333" height="213.33333" width="800" xml:space="preserve" id="svg2"><metadata></metadata><defs id="defs6"><clipPath id="clipPath18" clipPathUnits="userSpaceOnUse"><path id="path16" d="M 0,160 H 600 V 0 H 0 Z"></path></clipPath></defs><g transform="matrix(1.3333333,0,0,-1.3333333,0,213.33333)" id="g10"><g id="g12"><g clip-path="url(#clipPath18)" id="g14"><g transform="translate(556.1614,72.4171)" id="g20"><path id="path22" style="fill:#002e73;fill-opacity:1;fill-rule:evenodd;stroke:none" d="m 0,0 c -1.834,2.731 -6.035,2.913 -8.896,2.904 -7.727,-0.022 -15.572,-0.122 -23.288,0.01 -0.459,0.167 -1.079,0.839 -1.242,1.305 -0.085,0.249 -0.168,2.348 -0.067,2.577 0.472,0.042 7.14,0.089 8.123,0.089 3.218,0 24.787,-0.107 24.962,0.075 0.161,0.33 0.089,6.788 0.061,7.672 -4.12,0.148 -8.443,0.023 -12.585,0.023 -4.19,0 -8.38,0 -12.57,0 -2.09,0 -4.197,0.027 -6.285,-10e-4 -2.397,-0.033 -3.165,-0.086 -5.427,-0.909 -3.825,-1.392 -3.917,-5.484 -3.921,-9.101 -0.005,-3.833 0.668,-6.992 4.299,-8.63 2.741,-1.237 8.718,-0.838 11.863,-0.837 l 18.843,0.005 c 0.735,0.005 0.639,-0.236 0.629,-0.917 -0.018,-1.347 -0.421,-2.576 -1.675,-3.098 l -32.128,-0.007 -0.004,-7.69 c 7.765,-0.066 15.527,-0.005 23.266,-0.005 3.484,0 7.9,-0.257 11.272,0.305 3.394,0.565 5.391,2.295 6.044,5.863 C 1.791,-7.545 1.648,-2.453 0,0"></path></g><g transform="translate(206.6627,63.9718)" id="g24"><path id="path26" style="fill:#002e73;fill-opacity:1;fill-rule:evenodd;stroke:none" d="m 0,0 c -3.173,0 -6.346,0.002 -9.519,0 -1.214,-0.001 -3.513,-0.128 -4.596,0.109 -1.201,0.265 -1.572,2.554 -1.169,3.27 0.411,0.334 7.334,0.134 8.414,0.134 3.634,0 25.365,-0.121 25.856,0.094 l 0.061,7.922 -34.29,0.006 c -0.409,0.525 -0.178,3.087 0.853,3.542 1.249,0.551 3.064,0.296 4.442,0.296 h 9.662 c 6.389,0 12.92,-0.128 19.291,0.007 l 0.007,7.718 c -9.711,0.098 -19.467,0.001 -29.175,0.001 -4.819,0 -7.576,0.337 -10.817,-3.613 -2.795,-3.405 -2.121,-7.98 -2.122,-12.03 -0.001,-3.94 -0.64,-8.852 1.964,-12.118 2.891,-3.623 6.788,-3.426 11.047,-3.427 4.843,-0.002 9.685,0 14.528,0 4.815,0 9.797,-0.12 14.592,0.023 l 0.023,8.035 C 17.922,0.079 1.607,0 0,0"></path></g><g transform="translate(354.116,64.105)" id="g28"><path id="path30" style="fill:#002e73;fill-opacity:1;fill-rule:evenodd;stroke:none" d="m 0,0 c -1.74,-0.141 -4.236,-0.02 -6.057,-0.02 h -18.087 c -1.676,0.004 -3.988,-0.448 -4.385,1.419 -0.202,0.954 -0.073,8.567 -0.075,10.185 -0.002,1.851 -0.651,3.291 1.896,3.485 2.037,0.155 9.391,0.061 11.972,0.061 4.027,0 8.06,0.019 12.085,0 1.731,-0.008 4.065,0.436 4.357,-1.433 C 1.932,12.241 1.808,5.53 1.811,3.545 1.813,2.085 2.299,0.187 0,0 m 9.304,18.538 c -3.421,5.352 -9.696,4.595 -15.848,4.595 -3.541,0 -7.083,0 -10.625,0 -3.436,0 -7.219,0.132 -10.612,-0.077 -6.098,-0.375 -9.644,-4.847 -9.727,-9.755 -0.05,-2.983 -0.009,-6.016 0.002,-9.002 0.009,-2.573 -0.081,-5.448 1.352,-7.83 3.189,-5.3 9.873,-4.656 15.822,-4.656 3.542,-0.001 7.083,0 10.625,0 3.316,0 7.406,-0.183 10.63,0.079 6.858,0.558 9.673,4.198 9.77,9.792 0.051,2.982 -10e-4,6.015 -0.009,9.003 -0.007,2.627 0.139,5.474 -1.38,7.851"></path></g><g transform="translate(498.5334,64.105)" id="g32"><path id="path34" style="fill:#002e73;fill-opacity:1;fill-rule:evenodd;stroke:none" d="m 0,0 c -1.74,-0.141 -4.236,-0.02 -6.057,-0.02 h -18.087 c -1.676,0.004 -3.988,-0.448 -4.385,1.419 -0.202,0.954 -0.073,8.567 -0.075,10.185 -0.002,1.851 -0.651,3.291 1.896,3.485 2.037,0.155 9.391,0.061 11.972,0.061 4.027,0 8.06,0.019 12.085,0 1.731,-0.008 4.065,0.436 4.357,-1.433 C 1.932,12.241 1.808,5.53 1.811,3.545 1.813,2.085 2.299,0.187 0,0 m 9.304,18.538 c -3.421,5.352 -9.696,4.595 -15.848,4.595 -3.541,0 -7.083,0 -10.625,0 -3.436,0 -7.219,0.132 -10.612,-0.077 -6.098,-0.375 -9.644,-4.847 -9.727,-9.755 -0.05,-2.983 -0.009,-6.016 0.002,-9.002 0.009,-2.573 -0.081,-5.448 1.352,-7.83 3.189,-5.3 9.873,-4.656 15.822,-4.656 3.542,-0.001 7.083,0 10.625,0 3.316,0 7.406,-0.183 10.63,0.079 6.858,0.558 9.673,4.198 9.77,9.792 0.051,2.982 -10e-4,6.015 -0.009,9.003 -0.007,2.627 0.139,5.474 -1.38,7.851"></path></g><g transform="translate(399.2638,75.2)" id="g36"><path id="path38" style="fill:#002e73;fill-opacity:1;fill-rule:evenodd;stroke:none" d="m 0,0 h -16.573 c -5.197,0.001 -4.49,-0.572 -4.489,1.794 0,0.667 -0.041,1.469 0.029,2.12 1.895,0.168 4.465,0.019 6.433,0.019 h 12.89 c 1.507,0 5.047,0.189 6.319,-0.069 C 4.821,-0.492 3.476,0 0,0 m 10.317,10.374 c -1.091,1.273 -2.794,1.469 -4.308,1.564 -3.787,0.238 -7.605,0.114 -11.402,0.114 -7.665,0 -15.369,0.078 -23.03,-0.007 l -0.03,-31.357 7.337,-0.005 0.022,11.427 c 0.464,0.258 20.6,0.125 22.935,0.121 3.045,-0.005 7.084,-0.338 9.047,2.584 0.899,1.34 0.912,3.492 0.932,5.056 0.024,1.912 0.092,4.155 -0.006,6.042 -0.071,1.345 -0.619,3.436 -1.497,4.461"></path></g><g transform="translate(261.0001,64.1773)" id="g40"><path id="path42" style="fill:#002e73;fill-opacity:1;fill-rule:evenodd;stroke:none" d="m 0,0 -21.467,0.002 c -2.027,-0.003 -3.037,-0.168 -3.132,2.171 -0.118,2.904 0.002,7.261 -0.015,10.371 -0.011,2.213 0.362,2.572 2.709,2.54 6.976,-0.094 14.502,-0.002 21.547,-0.005 1.901,-0.001 9.475,10e-4 10.734,0.072 0.096,2.538 0.028,5.297 0.015,7.861 -0.452,0.085 -7.472,0.051 -8.53,0.051 -5.654,0 -11.308,-10e-4 -16.962,-10e-4 -2.65,0 -5.817,0.151 -8.406,-0.06 -2.345,-0.19 -4.206,-0.937 -5.927,-2.471 -3.773,-3.365 -2.979,-8.941 -2.979,-13.418 10e-4,-4.478 -0.813,-10.029 3.159,-13.245 1.746,-1.414 3.875,-2.116 6.148,-2.182 2.786,-0.081 5.705,-0.004 8.506,-0.004 L 6.589,-8.322 c 0.71,-0.005 3.579,-0.197 3.919,0.253 0.28,0.372 0.132,7.02 0.044,7.927 C 9.564,0.182 1.678,0 0,0"></path></g><g transform="translate(312.8627,87.1683)" id="g44"><path id="path46" style="fill:#002e73;fill-opacity:1;fill-rule:evenodd;stroke:none" d="m 0,0 c -0.335,0.16 -6.875,0.125 -7.077,-0.002 -0.253,-0.226 -0.126,-14.711 -0.126,-16.976 0,-1.11 0.146,-4.938 -0.041,-5.74 -0.309,0.005 -13.229,13.563 -14.587,15.026 -0.617,0.664 -1.218,1.186 -1.823,1.887 l -3.618,3.796 c -0.712,0.589 -1.377,1.057 -2.131,1.582 -1.576,1.098 -4.241,1.219 -5.982,0.494 -2.546,-1.06 -4.551,-3.484 -4.817,-6.276 -0.107,-1.13 -0.021,-9.556 -0.021,-11.113 l -0.003,-11.135 c -0.002,-0.657 0.007,-1.221 -0.026,-1.884 -0.035,-0.689 0.03,-1.016 0.796,-1.016 1.237,10e-4 2.503,0.029 3.747,0.034 2.778,0.013 2.897,-0.3 2.879,0.806 -0.077,4.741 0.002,10.035 0.002,14.845 0,1.057 -0.122,6.849 0.04,7.382 0.5,0.113 2.27,-2.086 2.728,-2.552 1.802,-1.832 3.555,-3.786 5.36,-5.632 0.869,-0.889 1.916,-1.859 2.721,-2.77 1.692,-1.917 3.551,-3.818 5.322,-5.673 1.685,-1.766 3.755,-3.957 5.766,-5.3 1.51,-1.009 2.294,-1.435 4.171,-1.357 1.466,0.06 2.783,0.677 3.904,1.608 2.402,1.996 2.998,5.065 2.974,8.039 C 0.139,-19.593 0.348,-0.466 0,0"></path></g><g transform="translate(448.169,75.2423)" id="g48"><path id="path50" style="fill:#002e73;fill-opacity:1;fill-rule:evenodd;stroke:none" d="m 0,0 h -25.931 v 11.881 h -7.281 V 0 h -0.006 v -7.426 h 0.006 v -11.881 h 7.281 V -7.426 H 0 V -19.307 H 7.281 V -7.426 0 11.881 l -7.281,0 z"></path></g><g transform="translate(139.198,79.195)" id="g52"><path id="path54" style="fill:#002e73;fill-opacity:1;fill-rule:evenodd;stroke:none" d="m 0,0 h 17.554 v -23.31 h 7.432 V 0 H 42.537 V 7.861 H 0 Z"></path></g><g transform="translate(163.7793,23.6322)" id="g56"><path id="path58" style="fill:#002e73;fill-opacity:1;fill-rule:nonzero;stroke:none" d="m 0,0 h 4.808 v 7.107 h 5.921 v 3.881 H 4.808 v 3.14 h 6.279 v 3.968 H 0 Z"></path></g><g transform="translate(188.6361,34.1631)" id="g60"><path id="path62" style="fill:#002e73;fill-opacity:1;fill-rule:nonzero;stroke:none" d="M 0,0 V -1.236 C 0,-2.53 -0.033,-3.459 -0.099,-4.023 -0.165,-4.588 -0.276,-5.06 -0.433,-5.438 -0.63,-5.9 -0.962,-6.252 -1.428,-6.495 -1.893,-6.738 -2.464,-6.86 -3.14,-6.86 c -0.675,0 -1.248,0.122 -1.718,0.365 -0.469,0.243 -0.799,0.595 -0.988,1.057 -0.157,0.378 -0.268,0.85 -0.334,1.415 -0.066,0.564 -0.099,1.493 -0.099,2.787 v 8.801 h -4.919 v -7.688 -1.879 c 0,-1.986 0.121,-3.451 0.364,-4.394 0.243,-0.944 0.645,-1.749 1.205,-2.417 0.626,-0.733 1.477,-1.283 2.553,-1.65 1.075,-0.367 2.387,-0.55 3.936,-0.55 1.541,0 2.851,0.183 3.931,0.55 1.079,0.367 1.928,0.917 2.546,1.65 0.569,0.668 0.973,1.473 1.212,2.417 0.238,0.943 0.358,2.408 0.358,4.394 V 7.565 L 0,7.565 Z"></path></g><g transform="translate(210.3656,41.7278)" id="g64"><path id="path66" style="fill:#002e73;fill-opacity:1;fill-rule:nonzero;stroke:none" d="m 0,0 -2.756,-9.307 c -0.157,-0.553 -0.281,-1.024 -0.371,-1.416 -0.091,-0.391 -0.153,-0.748 -0.186,-1.069 -0.066,0.594 -0.226,1.306 -0.482,2.138 -0.049,0.149 -0.082,0.256 -0.099,0.322 L -6.625,0 h -4.883 l -2.793,-18.096 h 4.586 l 1.063,7.824 c 0.09,0.668 0.169,1.337 0.235,2.009 0.065,0.672 0.123,1.349 0.173,2.033 0.107,-0.758 0.333,-1.71 0.679,-2.855 0.066,-0.239 0.116,-0.416 0.149,-0.532 l 2.46,-8.479 h 3.287 l 2.46,8.479 c 0.033,0.116 0.087,0.293 0.161,0.532 0.338,1.145 0.564,2.101 0.68,2.868 0.049,-0.8 0.105,-1.537 0.166,-2.213 0.062,-0.676 0.13,-1.289 0.204,-1.842 l 1.063,-7.824 H 7.676 L 4.895,0 Z"></path></g><path id="path68" style="fill:#002e73;fill-opacity:1;fill-rule:nonzero;stroke:none" d="m 220.822,23.632 h 4.981 v 18.096 h -4.981 z"></path><g transform="translate(248.0769,34.089)" id="g70"><path id="path72" style="fill:#002e73;fill-opacity:1;fill-rule:nonzero;stroke:none" d="m 0,0 h -9.69 v -3.794 h 4.907 c -0.141,-1.023 -0.629,-1.84 -1.465,-2.454 -0.837,-0.614 -1.881,-0.921 -3.133,-0.921 -1.476,0 -2.637,0.494 -3.486,1.483 -0.849,0.989 -1.273,2.344 -1.273,4.067 0,1.706 0.424,3.051 1.273,4.035 0.849,0.985 2.01,1.478 3.486,1.478 0.791,0 1.505,-0.172 2.144,-0.513 0.639,-0.342 1.213,-0.864 1.724,-1.564 l 4.277,2.052 c -0.931,1.384 -2.079,2.427 -3.442,3.127 -1.364,0.7 -2.932,1.051 -4.703,1.051 -1.36,0 -2.627,-0.227 -3.801,-0.68 -1.174,-0.454 -2.215,-1.121 -3.121,-2.003 -0.915,-0.906 -1.603,-1.926 -2.064,-3.059 -0.462,-1.133 -0.693,-2.375 -0.693,-3.726 0,-1.294 0.237,-2.532 0.711,-3.715 0.474,-1.182 1.139,-2.206 1.996,-3.071 0.898,-0.907 1.918,-1.58 3.06,-2.021 1.141,-0.441 2.445,-0.661 3.912,-0.661 2.982,0 5.296,0.859 6.94,2.577 1.644,1.718 2.466,4.134 2.466,7.249 0,0.288 -0.002,0.507 -0.006,0.655 C 0.014,-0.26 0.008,-0.124 0,0"></path></g><g transform="translate(255.901,30.3934)" id="g74"><path id="path76" style="fill:#002e73;fill-opacity:1;fill-rule:nonzero;stroke:none" d="M 0,0 1.817,5.97 C 1.924,6.341 2.029,6.728 2.132,7.132 2.235,7.535 2.34,7.96 2.447,8.405 2.604,7.77 2.732,7.251 2.831,6.848 2.929,6.444 3.008,6.151 3.065,5.97 L 4.907,0 Z M -0.667,11.334 -6.909,-6.761 h 4.907 l 0.939,3.238 H 5.945 L 6.86,-6.761 h 4.907 L 5.513,11.334 Z"></path></g><g transform="translate(266.9305,37.4511)" id="g78"><path id="path80" style="fill:#002e73;fill-opacity:1;fill-rule:nonzero;stroke:none" d="M 0,0 H 4.054 V -13.819 H 8.986 V 0 H 13.04 V 4.277 H 0 Z"></path></g><path id="path82" style="fill:#002e73;fill-opacity:1;fill-rule:nonzero;stroke:none" d="m 282.505,23.632 h 4.981 v 18.096 h -4.981 z"></path><g transform="translate(303.7705,28.8358)" id="g84"><path id="path86" style="fill:#002e73;fill-opacity:1;fill-rule:nonzero;stroke:none" d="m 0,0 c -0.894,-1.005 -2.025,-1.508 -3.393,-1.508 -1.392,0 -2.53,0.498 -3.411,1.496 -0.882,0.997 -1.323,2.27 -1.323,3.819 0,1.525 0.447,2.791 1.341,3.801 0.894,1.009 2.025,1.514 3.393,1.514 1.343,0 2.468,-0.507 3.374,-1.52 C 0.888,6.588 1.341,5.323 1.341,3.807 1.341,2.274 0.894,1.005 0,0 m 3.467,10.519 c -0.907,0.89 -1.955,1.576 -3.146,2.058 -1.19,0.482 -2.428,0.723 -3.714,0.723 -1.294,0 -2.532,-0.241 -3.714,-0.723 -1.183,-0.482 -2.223,-1.168 -3.121,-2.058 -0.931,-0.898 -1.638,-1.918 -2.12,-3.059 -0.482,-1.142 -0.723,-2.359 -0.723,-3.653 0,-1.285 0.241,-2.501 0.723,-3.646 0.482,-1.146 1.189,-2.168 2.12,-3.066 0.898,-0.889 1.938,-1.576 3.121,-2.057 1.182,-0.483 2.42,-0.724 3.714,-0.724 1.277,0 2.509,0.241 3.696,0.724 1.187,0.481 2.241,1.168 3.164,2.057 0.915,0.898 1.611,1.916 2.089,3.053 0.478,1.137 0.717,2.357 0.717,3.659 0,1.294 -0.241,2.513 -0.723,3.659 -0.482,1.145 -1.177,2.163 -2.083,3.053"></path></g><g transform="translate(326.0872,32.7913)" id="g88"><path id="path90" style="fill:#002e73;fill-opacity:1;fill-rule:nonzero;stroke:none" d="m 0,0 c 0,-0.453 0.023,-0.972 0.068,-1.558 0.045,-0.585 0.117,-1.252 0.216,-2.002 -0.362,0.791 -0.694,1.473 -0.995,2.046 -0.301,0.572 -0.517,0.953 -0.649,1.143 l -6.835,9.308 h -4.759 V -9.159 h 4.759 v 8.936 c 0,0.454 -0.023,0.973 -0.068,1.558 C -8.308,1.92 -8.38,2.591 -8.479,3.35 -8.125,2.575 -7.797,1.901 -7.497,1.329 -7.196,0.756 -6.976,0.375 -6.835,0.185 L 0,-9.159 H 4.734 V 8.937 H 0 Z"></path></g><path id="path92" style="fill:#002e73;fill-opacity:1;fill-rule:nonzero;stroke:none" d="m 342.749,23.632 h 4.981 v 18.096 h -4.981 z"></path><g transform="translate(364.6635,32.7913)" id="g94"><path id="path96" style="fill:#002e73;fill-opacity:1;fill-rule:nonzero;stroke:none" d="m 0,0 c 0,-0.453 0.023,-0.972 0.068,-1.558 0.045,-0.585 0.118,-1.252 0.216,-2.002 -0.362,0.791 -0.694,1.473 -0.995,2.046 -0.301,0.572 -0.517,0.953 -0.649,1.143 l -6.835,9.308 h -4.759 V -9.159 h 4.759 v 8.936 c 0,0.454 -0.023,0.973 -0.068,1.558 -0.045,0.585 -0.117,1.256 -0.216,2.015 0.354,-0.775 0.682,-1.449 0.983,-2.021 0.3,-0.573 0.521,-0.954 0.661,-1.144 L 0,-9.159 H 4.734 V 8.937 H 0 Z"></path></g><g transform="translate(386.2324,32.7913)" id="g98"><path id="path100" style="fill:#002e73;fill-opacity:1;fill-rule:nonzero;stroke:none" d="m 0,0 c 0,-0.453 0.023,-0.972 0.068,-1.558 0.045,-0.585 0.118,-1.252 0.216,-2.002 -0.362,0.791 -0.694,1.473 -0.995,2.046 -0.301,0.572 -0.517,0.953 -0.649,1.143 l -6.835,9.308 h -4.759 V -9.159 h 4.759 v 8.936 c 0,0.454 -0.023,0.973 -0.068,1.558 -0.045,0.585 -0.117,1.256 -0.216,2.015 0.354,-0.775 0.682,-1.449 0.983,-2.021 0.3,-0.573 0.521,-0.954 0.661,-1.144 L 0,-9.159 H 4.734 V 8.937 H 0 Z"></path></g><g transform="translate(407.1526,28.8358)" id="g102"><path id="path104" style="fill:#002e73;fill-opacity:1;fill-rule:nonzero;stroke:none" d="m 0,0 c -0.894,-1.005 -2.025,-1.508 -3.393,-1.508 -1.393,0 -2.53,0.498 -3.412,1.496 -0.881,0.997 -1.322,2.27 -1.322,3.819 0,1.525 0.447,2.791 1.341,3.801 0.894,1.009 2.025,1.514 3.393,1.514 1.343,0 2.468,-0.507 3.374,-1.52 C 0.888,6.588 1.341,5.323 1.341,3.807 1.341,2.274 0.894,1.005 0,0 m 3.467,10.519 c -0.907,0.89 -1.955,1.576 -3.146,2.058 -1.191,0.482 -2.428,0.723 -3.714,0.723 -1.294,0 -2.532,-0.241 -3.714,-0.723 -1.183,-0.482 -2.223,-1.168 -3.121,-2.058 -0.932,-0.898 -1.638,-1.918 -2.12,-3.059 -0.482,-1.142 -0.723,-2.359 -0.723,-3.653 0,-1.285 0.241,-2.501 0.723,-3.646 0.482,-1.146 1.188,-2.168 2.12,-3.066 0.898,-0.889 1.938,-1.576 3.121,-2.057 1.182,-0.483 2.42,-0.724 3.714,-0.724 1.277,0 2.509,0.241 3.696,0.724 1.186,0.481 2.241,1.168 3.164,2.057 0.915,0.898 1.611,1.916 2.089,3.053 0.478,1.137 0.717,2.357 0.717,3.659 0,1.294 -0.241,2.513 -0.723,3.659 -0.482,1.145 -1.177,2.163 -2.083,3.053"></path></g><g transform="translate(427.3517,41.7278)" id="g106"><path id="path108" style="fill:#002e73;fill-opacity:1;fill-rule:nonzero;stroke:none" d="m 0,0 -3.597,-10.123 c -0.058,-0.173 -0.144,-0.482 -0.26,-0.927 -0.115,-0.445 -0.238,-0.944 -0.37,-1.496 -0.165,0.692 -0.299,1.242 -0.402,1.65 -0.103,0.408 -0.171,0.666 -0.204,0.773 L -8.455,0 h -5.24 l 7.589,-18.096 h 3.757 L 5.241,0 Z"></path></g><g transform="translate(438.4056,30.3934)" id="g110"><path id="path112" style="fill:#002e73;fill-opacity:1;fill-rule:nonzero;stroke:none" d="M 0,0 1.817,5.97 C 1.924,6.341 2.029,6.728 2.132,7.132 2.235,7.535 2.34,7.96 2.447,8.405 2.604,7.77 2.732,7.251 2.831,6.848 2.929,6.444 3.008,6.151 3.065,5.97 L 4.907,0 Z M -0.668,11.334 -6.909,-6.761 h 4.907 l 0.939,3.238 H 5.945 L 6.86,-6.761 h 4.907 L 5.513,11.334 Z"></path></g><g transform="translate(449.4313,37.4511)" id="g114"><path id="path116" style="fill:#002e73;fill-opacity:1;fill-rule:nonzero;stroke:none" d="M 0,0 H 4.054 V -13.819 H 8.986 V 0 H 13.04 V 4.277 H 0 Z"></path></g><path id="path118" style="fill:#002e73;fill-opacity:1;fill-rule:nonzero;stroke:none" d="m 465.005,23.632 h 4.981 v 18.096 h -4.981 z"></path><g transform="translate(486.2715,28.8358)" id="g120"><path id="path122" style="fill:#002e73;fill-opacity:1;fill-rule:nonzero;stroke:none" d="m 0,0 c -0.894,-1.005 -2.025,-1.508 -3.393,-1.508 -1.393,0 -2.53,0.498 -3.412,1.496 -0.881,0.997 -1.322,2.27 -1.322,3.819 0,1.525 0.447,2.791 1.341,3.801 0.894,1.009 2.025,1.514 3.393,1.514 1.343,0 2.468,-0.507 3.374,-1.52 C 0.888,6.588 1.341,5.323 1.341,3.807 1.341,2.274 0.894,1.005 0,0 m 3.467,10.519 c -0.907,0.89 -1.955,1.576 -3.146,2.058 -1.191,0.482 -2.428,0.723 -3.714,0.723 -1.294,0 -2.532,-0.241 -3.714,-0.723 -1.183,-0.482 -2.223,-1.168 -3.121,-2.058 -0.932,-0.898 -1.638,-1.918 -2.12,-3.059 -0.482,-1.142 -0.723,-2.359 -0.723,-3.653 0,-1.285 0.241,-2.501 0.723,-3.646 0.482,-1.146 1.188,-2.168 2.12,-3.066 0.898,-0.889 1.938,-1.576 3.121,-2.057 1.182,-0.483 2.42,-0.724 3.714,-0.724 1.277,0 2.509,0.241 3.696,0.724 1.186,0.481 2.241,1.168 3.164,2.057 0.915,0.898 1.611,1.916 2.089,3.053 0.478,1.137 0.717,2.357 0.717,3.659 0,1.294 -0.241,2.513 -0.723,3.659 -0.482,1.145 -1.177,2.163 -2.083,3.053"></path></g><g transform="translate(508.5878,32.7913)" id="g124"><path id="path126" style="fill:#002e73;fill-opacity:1;fill-rule:nonzero;stroke:none" d="m 0,0 c 0,-0.453 0.023,-0.972 0.068,-1.558 0.045,-0.585 0.118,-1.252 0.216,-2.002 -0.362,0.791 -0.694,1.473 -0.995,2.046 -0.301,0.572 -0.517,0.953 -0.649,1.143 l -6.835,9.308 h -4.759 V -9.159 h 4.759 v 8.936 c 0,0.454 -0.023,0.973 -0.068,1.558 -0.045,0.585 -0.117,1.256 -0.216,2.015 0.354,-0.775 0.682,-1.449 0.983,-2.021 0.3,-0.573 0.521,-0.954 0.661,-1.144 L 0,-9.159 H 4.734 V 8.937 H 0 Z"></path></g><g transform="translate(528.8094,31.5985)" id="g128"><path id="path130" style="fill:#002e73;fill-opacity:1;fill-rule:nonzero;stroke:none" d="m 0,0 c -0.222,0.622 -0.548,1.156 -0.976,1.601 -0.635,0.65 -1.957,1.248 -3.968,1.792 l -0.223,0.062 c -0.931,0.247 -1.559,0.506 -1.884,0.778 -0.326,0.272 -0.489,0.635 -0.489,1.088 0,0.445 0.186,0.81 0.556,1.094 0.371,0.284 0.854,0.426 1.447,0.426 0.576,0 1.159,-0.121 1.749,-0.364 0.589,-0.243 1.164,-0.604 1.724,-1.082 l 1.545,3.548 c -0.799,0.544 -1.646,0.949 -2.54,1.217 -0.894,0.268 -1.84,0.402 -2.837,0.402 -1.846,0 -3.347,-0.546 -4.505,-1.638 -1.158,-1.092 -1.737,-2.503 -1.737,-4.233 0,-1.335 0.367,-2.386 1.1,-3.152 0.734,-0.767 1.986,-1.389 3.758,-1.866 1.293,-0.347 2.124,-0.683 2.491,-1.008 0.366,-0.326 0.55,-0.789 0.55,-1.391 0,-0.543 -0.213,-0.993 -0.637,-1.347 -0.424,-0.354 -0.966,-0.531 -1.625,-0.531 -0.709,0 -1.42,0.206 -2.133,0.618 -0.712,0.412 -1.435,1.034 -2.169,1.866 l -2.225,-3.671 c 0.956,-0.915 1.951,-1.586 2.985,-2.015 1.034,-0.428 2.182,-0.642 3.443,-0.642 2.101,0 3.782,0.583 5.043,1.749 1.261,1.166 1.891,2.708 1.891,4.629 C 0.334,-1.312 0.223,-0.622 0,0"></path></g><g transform="translate(50.1424,118.923)" id="g132"><path id="path134" style="fill:#08b5d0;fill-opacity:1;fill-rule:evenodd;stroke:none" d="m 0,0 c -0.069,3.721 0.39,7.305 1.677,10.498 1.286,3.193 3.4,5.996 5.996,8.27 2.595,2.274 5.674,4.02 9.372,5.375 3.699,1.356 8.017,2.321 13.53,2.045 5.514,-0.276 12.221,-1.792 17.689,-2.964 5.467,-1.171 9.694,-1.998 15.414,-2.503 5.72,-0.506 12.933,-0.69 19.135,-0.46 6.203,0.23 11.394,0.873 15.874,1.746 4.479,0.873 8.247,1.976 12.313,3.262 4.066,1.286 8.43,2.757 12.795,4.227 -0.597,-1.792 -1.195,-3.584 -2.711,-5.973 -1.516,-2.389 -3.951,-5.375 -6.639,-7.649 -2.687,-2.275 -5.628,-3.837 -9.51,-5.261 C 101.053,9.189 96.229,7.902 91.29,7.029 86.351,6.156 81.297,5.697 75.485,5.835 69.673,5.973 63.103,6.708 57.981,7.328 52.858,7.948 49.183,8.454 45.484,8.959 l -0.529,0.072 v 7.509 c -0.712,0.138 -1.424,0.275 -2.136,0.413 V 9.318 c -2.822,0.372 -5.664,0.701 -8.545,0.858 -3.79,0.207 -7.65,0.115 -11.026,-0.39 C 19.871,9.281 16.976,8.362 14.403,6.754 11.83,5.146 9.579,2.849 7.765,0.551 5.95,-1.746 4.571,-4.043 3.561,-6.042 2.55,-8.04 1.907,-9.74 1.263,-11.44 0.666,-7.581 0.069,-3.721 0,0"></path></g><g transform="translate(59.3307,22.1656)" id="g136"><path id="path138" style="fill:#08b5d0;fill-opacity:1;fill-rule:evenodd;stroke:none" d="m 0,0 c 3.905,1.424 7.81,2.849 12.106,5.077 4.296,2.228 8.982,5.26 12.635,8.476 3.652,3.216 6.271,6.616 8.499,10.246 2.228,3.629 4.066,7.489 5.468,11.394 1.401,3.905 2.366,7.856 3.101,12.336 0.735,4.479 1.24,9.487 1.562,14.311 0.321,4.824 0.459,9.465 0.551,14.128 0.092,4.663 0.138,9.349 0.184,14.036 4.227,-0.46 8.454,-0.919 13.186,-1.126 4.732,-0.207 9.969,-0.161 14.839,0.345 4.871,0.505 9.373,1.47 13.37,2.434 3.997,0.965 7.489,1.93 10.521,3.01 3.033,1.08 5.605,2.274 8.178,3.469 -1.654,-2.298 -3.308,-4.595 -5.375,-6.685 -2.068,-2.091 -4.549,-3.974 -7.259,-5.536 -2.711,-1.563 -5.651,-2.803 -8.959,-3.791 -3.308,-0.988 -6.984,-1.723 -11.142,-2.159 -4.157,-0.437 -8.798,-0.574 -13.438,-0.712 0.23,-3.584 0.459,-7.167 0.597,-10.797 0.138,-3.63 0.184,-7.305 -0.023,-11.118 C 58.394,53.524 57.935,49.573 57.085,45.392 56.235,41.211 54.995,36.801 53.272,32.666 51.549,28.531 49.343,24.672 46.909,21.042 44.473,17.413 41.809,14.013 38.317,11.21 34.825,8.408 30.507,6.202 26.257,4.457 22.007,2.711 17.826,1.424 13.462,0.758 9.097,0.092 4.548,0.046 0,0"></path></g><g transform="translate(92.9611,135.8762)" id="g140"><path id="path142" style="fill:#002e73;fill-opacity:1;fill-rule:evenodd;stroke:none" d="m 0,0 v -9.304 c -1.815,-0.16 -3.63,-0.321 -4.973,-0.608 -1.344,-0.287 -2.217,-0.701 -2.631,-1.608 -0.413,-0.908 -0.367,-2.309 -0.344,-3.618 0.023,-1.31 0.023,-2.527 0.023,-3.745 1.24,0.184 2.481,0.368 4.158,0.425 1.677,0.058 3.79,-0.011 5.903,-0.08 V -0.414 C 1.424,-0.276 0.712,-0.138 0,0"></path></g><g transform="translate(72.8379,100.5916)" id="g144"><path id="path146" style="fill:#002e73;fill-opacity:1;fill-rule:evenodd;stroke:none" d="m 0,0 c -0.276,1.447 -0.551,2.894 -0.448,4.33 0.103,1.436 0.586,2.86 1.275,4.158 0.689,1.298 1.585,2.47 3.182,3.446 1.596,0.976 3.893,1.757 5.834,2.263 1.942,0.505 3.527,0.735 5.537,0.849 2.01,0.115 4.445,0.115 6.88,0.115 V 3.721 C 20.491,3.676 18.722,3.63 16.505,3.377 14.288,3.124 11.624,2.665 8.798,2.067 5.973,1.47 2.986,0.735 0,0"></path></g><g transform="translate(51.7843,91.9656)" id="g148"><path id="path150" style="fill:#002e73;fill-opacity:1;fill-rule:evenodd;stroke:none" d="m 0,0 c 2.309,0.861 5.892,2.194 9.763,3.446 3.871,1.252 8.029,2.423 11.98,3.423 3.951,0.999 7.695,1.826 10.441,2.351 2.745,0.526 4.491,0.75 6.169,0.918 1.679,0.168 3.289,0.28 4.9,0.392 C 43.25,8.632 43.248,6.734 43.131,2.247 43.015,-2.24 42.785,-9.315 42.463,-14.725 c -0.321,-5.41 -0.735,-9.154 -1.458,-12.589 -0.724,-3.434 -1.758,-6.558 -2.906,-9.315 -1.149,-2.756 -2.412,-5.145 -4.135,-7.431 -1.723,-2.286 -3.905,-4.468 -6.248,-6.524 -2.344,-2.056 -4.847,-3.986 -7.581,-5.754 -2.734,-1.769 -5.697,-3.377 -8.672,-4.572 -2.975,-1.195 -5.961,-1.976 -8.948,-2.757 1.057,2.895 2.114,5.789 2.792,9.063 0.677,3.273 0.976,6.926 1.068,10.372 0.092,3.445 -0.023,6.684 -0.379,9.866 -0.356,3.182 -0.954,6.306 -1.643,9.051 -0.689,2.745 -1.47,5.111 -2.286,7.317 -0.815,2.205 -1.665,4.249 -2.515,6.294 -0.827,-0.322 -1.654,-0.643 -2.481,-0.965 -0.781,1.562 -1.562,3.124 -2.159,4.445 -0.598,1.321 -1.011,2.401 -0.862,3.457 0.15,1.057 0.862,2.091 1.735,2.803 C -3.342,-1.252 -2.309,-0.861 0,0 m 34.466,0.604 c 1.751,0 3.17,-1.42 3.17,-3.171 0,-1.75 -1.419,-3.17 -3.17,-3.17 -1.751,0 -3.17,1.42 -3.17,3.17 0,1.751 1.419,3.171 3.17,3.171"></path></g></g></g></g></svg>